<?xml version="1.0" encoding="UTF-8"?><svg id="Layer_2" xmlns="http://www.w3.org/2000/svg" width="33" height="23.48" xmlns:xlink="http://www.w3.org/1999/xlink" viewBox="0 0 33 23.48"><defs><linearGradient id="linear-gradient" x1="-466.35" y1="-1491.58" x2="-489.93" y2="-1511.37" gradientTransform="translate(-467.53 1509.9) rotate(-180) scale(1 -1)" gradientUnits="userSpaceOnUse"><stop offset="0" stop-color="#00e6be"/><stop offset=".04" stop-color="#00e7bc"/><stop offset=".63" stop-color="#00f8a3"/><stop offset="1" stop-color="#00ff9b"/></linearGradient><linearGradient id="linear-gradient-2" x1="-6885.32" y1="2116.84" x2="-6908.9" y2="2097.06" gradientTransform="translate(6919.5 2122.01) scale(1 -1)" xlink:href="#linear-gradient"/><radialGradient id="radial-gradient" cx="16.5" cy="11.74" fx="16.5" fy="11.74" r="14.32" gradientUnits="userSpaceOnUse"><stop offset="0" stop-color="#00ff2a"/><stop offset=".24" stop-color="#00fd2d"/><stop offset=".44" stop-color="#03fa37"/><stop offset=".61" stop-color="#07f448"/><stop offset=".78" stop-color="#0dec5f"/><stop offset=".94" stop-color="#14e17e"/><stop offset="1" stop-color="#18dd8c"/></radialGradient></defs><g id="Layer_1-2"><g id="dark-square"><path id="left" d="M.6,11.57L7.99,1.5c1.47-2,4.8-2,6.27,0l5.72,7.8c.3.41-.22.89-.7.66-4.56-2.16-8.15,1.3-8.15,1.3l-5.18,4.53c-.56.49-1.32.79-2.12.8-3,.06-4.84-2.83-3.23-5.02Z" style="fill:url(#linear-gradient); stroke-width:0px;"/><path id="right" d="M32.4,11.92l-7.39,10.07c-1.47,2-4.8,2-6.27,0l-5.72-7.8c-.3-.41.22-.89.7-.66,4.56,2.16,8.15-1.3,8.15-1.3l5.18-4.53c.56-.49,1.32-.79,2.12-.8,3-.06,4.84,2.83,3.23,5.02Z" style="fill:url(#linear-gradient-2); stroke-width:0px;"/><path id="left-2" d="M.6,11.57L7.99,1.5c1.47-2,4.8-2,6.27,0l5.72,7.8c.3.41-.22.89-.7.66-4.56-2.16-8.15,1.3-8.15,1.3l-5.18,4.53c-.56.49-1.32.79-2.12.8-3,.06-4.84-2.83-3.23-5.02Z" style="fill:url(#radial-gradient); stroke-width:0px;"/><path id="right-2" d="M32.4,11.92l-7.39,10.07c-1.47,2-4.8,2-6.27,0l-5.72-7.8c-.3-.41.22-.89.7-.66,4.56,2.16,8.15-1.3,8.15-1.3l5.18-4.53c.56-.49,1.32-.79,2.12-.8,3-.06,4.84,2.83,3.23,5.02Z" style="fill:url(#radial-gradient); stroke-width:0px;"/></g></g></svg>