<?xml version="1.0" encoding="UTF-8"?>
<svg id="Layer_2" xmlns="http://www.w3.org/2000/svg" width="408.77" height="105.94" viewBox="0 0 408.77 105.94">
  <g id="Layer_1-2" data-name="Layer_1">
    <g id="Layer_1-3">
      <path d="M174.66,31.22c-1.43,8.41-8.28,14.72-17.93,14.72s-18.28-8.41-18.28-18.48,7.26-18.62,18.28-18.62,16.3,6.17,17.8,14.44h-6.64c-1.36-4.72-5.55-8.28-11.09-8.21-7.26,0-11.91,5.76-11.91,12.33s4.65,12.33,11.91,12.33,10-3.56,11.22-8.48h6.64v-.03Z" style="fill: #fff;"/>
      <path d="M209.17,9.52l-14.58,21.02v14.65h-6.37v-14.38l-14.58-21.29h7.53l10.27,15.26,10.34-15.26h7.39Z" style="fill: #fff;"/>
      <path d="M237.12,26.64c3.22,1.36,5.35,4.31,5.35,8.28,0,5.89-4.58,10.27-10.61,10.27h-19.11V9.52h18.34c5.82,0,10.34,3.76,10.34,9.52s-1.57,5.89-4.38,7.39v.14l.07.07ZM219.17,15.48v8.7h11.29c2.67,0,4.58-1.99,4.58-4.38s-1.92-4.38-4.58-4.38h-11.29v.07-.02ZM231.3,39.16c2.74,0,4.72-1.99,4.72-4.58s-2.06-4.65-4.85-4.65h-12.06v9.18h12.13l.07.07v-.02Z" style="fill: #fff;"/>
      <path d="M248.68,45.19V9.52h26.91v6.23h-20.47v8.14h18.48v6.03h-18.48v9.04h20.47v6.23h-26.91v-.02Z" style="fill: #fff;"/>
      <path d="M282.44,45.19V9.52h18.07c6.92,0,11.91,3.56,11.91,9.93s-1.29,5.89-3.49,7.46v.14c2.81.68,4.17,2.81,4.17,6.37v11.77h-6.37v-10.54c0-1.5-.89-2.27-2.47-2.27h-15.48v12.81h-6.37.03ZM288.81,26.43h11.29c3.42,0,5.96-2.06,5.96-5.35s-2.61-5.35-5.96-5.35h-11.29v10.7Z" style="fill: #fff;"/>
      <path d="M326.88,38v7.19h-6.92v-7.19h6.92Z" style="fill: #fff;"/>
      <path d="M166.73,60.74h6.37v35.67h-6.37l-19.93-26.84v26.84h-6.37v-35.67h7.46l18.91,25.19v-25.19s-.07,0-.07,0Z" style="fill: #fff;"/>
      <path d="M181.44,96.4v-35.67h26.91v6.23h-20.47v8.14h18.48v6.03h-18.48v9.04h20.47v6.23h-26.91v-.02Z" style="fill: #fff;"/>
      <path d="M243.69,60.74v6.23h-12.4v29.45h-6.37v-29.45h-12.4v-6.23h31.17Z" style="fill: #fff;"/>
      <path d="M288.88,60.74h6.92l-10.68,35.67h-6.98l-7.26-24.92-7.26,24.92h-6.98l-10.68-35.67h6.92l7.53,25.46,7.26-25.46h6.37l7.26,25.46,7.53-25.46h.07Z" style="fill: #fff;"/>
      <path d="M297.29,78.6c0-10.2,7.39-18.62,18.62-18.62s18.68,8.41,18.68,18.62-7.39,18.48-18.68,18.48-18.62-8.35-18.62-18.48h0ZM328.17,78.6c0-6.71-4.72-12.33-12.26-12.33s-12.19,5.62-12.19,12.33,4.72,12.33,12.19,12.33,12.26-5.69,12.26-12.33Z" style="fill: #fff;"/>
      <path d="M340.78,96.4v-35.67h18.07c6.92,0,11.91,3.56,11.91,9.93s-1.29,5.89-3.49,7.46v.14c2.81.68,4.17,2.81,4.17,6.37v11.77h-6.37v-10.54c0-1.5-.82-2.27-2.47-2.27h-15.48v12.81h-6.37.03ZM347.15,77.65h11.29c3.42,0,5.96-2.06,5.96-5.35s-2.61-5.35-5.96-5.35h-11.29v10.7Z" style="fill: #fff;"/>
      <path d="M400.97,75.04c4.85,0,7.05,2.47,7.05,7.05v14.24h-6.37v-13.01c0-1.57-.82-2.27-2.4-2.27h-14.92v15.26h-6.37v-35.67h6.37v14.31h9.73l7.66-14.31h7.05l-7.8,14.31h0v.09Z" style="fill: #fff;"/>
      <path d="M105.92,26.5L13.22,52.94l92.71,26.5v26.5h-52.94L0,52.94,53,0h52.94v26.5h-.02Z" style="fill: #fff;"/>
    </g>
  </g>
</svg>